<mxfile host="app.diagrams.net">
  <diagram name="Navigation Flow" id="navigation-flow-1">
    <mxGraphModel dx="1000" dy="1000" grid="1" gridSize="10" guides="1" tooltips="1" connect="1" arrows="1" fold="1" page="1" pageScale="1" pageWidth="850" pageHeight="1100" math="0" shadow="0">
      <root>
        <mxCell id="0" />
        <mxCell id="1" parent="0" />
        <!-- Ecrans principaux -->
        <mxCell id="2" value="Splash/Loading" style="rounded=1;whiteSpace=wrap;html=1;fillColor=#e3f2fd;strokeColor=#1976d2;" vertex="1" parent="1">
          <mxGeometry x="60" y="60" width="120" height="40" as="geometry" />
        </mxCell>
        <mxCell id="3" value="Login" style="rounded=1;whiteSpace=wrap;html=1;fillColor=#fffde7;strokeColor=#fbc02d;" vertex="1" parent="1">
          <mxGeometry x="240" y="60" width="120" height="40" as="geometry" />
        </mxCell>
        <mxCell id="4" value="Inscription" style="rounded=1;whiteSpace=wrap;html=1;fillColor=#fffde7;strokeColor=#fbc02d;" vertex="1" parent="1">
          <mxGeometry x="400" y="30" width="120" height="40" as="geometry" />
        </mxCell>
        <mxCell id="5" value="Reset Password" style="rounded=1;whiteSpace=wrap;html=1;fillColor=#fffde7;strokeColor=#fbc02d;" vertex="1" parent="1">
          <mxGeometry x="400" y="90" width="120" height="40" as="geometry" />
        </mxCell>
        <mxCell id="6" value="Landing (Dashboard)" style="rounded=1;whiteSpace=wrap;html=1;fillColor=#e8f5e9;strokeColor=#388e3c;" vertex="1" parent="1">
          <mxGeometry x="240" y="180" width="160" height="40" as="geometry" />
        </mxCell>
        <mxCell id="7" value="Voyages (Liste)" style="rounded=1;whiteSpace=wrap;html=1;fillColor=#e1f5fe;strokeColor=#0288d1;" vertex="1" parent="1">
          <mxGeometry x="60" y="300" width="140" height="40" as="geometry" />
        </mxCell>
        <mxCell id="8" value="Détail Voyage" style="rounded=1;whiteSpace=wrap;html=1;fillColor=#e1f5fe;strokeColor=#0288d1;" vertex="1" parent="1">
          <mxGeometry x="60" y="380" width="140" height="40" as="geometry" />
        </mxCell>
        <mxCell id="9" value="Fenêtre (Window)" style="rounded=1;whiteSpace=wrap;html=1;fillColor=#f3e5f5;strokeColor=#8e24aa;" vertex="1" parent="1">
          <mxGeometry x="240" y="300" width="140" height="40" as="geometry" />
        </mxCell>
        <mxCell id="10" value="Chat" style="rounded=1;whiteSpace=wrap;html=1;fillColor=#fce4ec;strokeColor=#d81b60;" vertex="1" parent="1">
          <mxGeometry x="420" y="300" width="100" height="40" as="geometry" />
        </mxCell>
        <mxCell id="11" value="Bobbers" style="rounded=1;whiteSpace=wrap;html=1;fillColor=#e0f2f1;strokeColor=#00897b;" vertex="1" parent="1">
          <mxGeometry x="540" y="300" width="100" height="40" as="geometry" />
        </mxCell>
        <mxCell id="12" value="Jeux" style="rounded=1;whiteSpace=wrap;html=1;fillColor=#fff3e0;strokeColor=#f57c00;" vertex="1" parent="1">
          <mxGeometry x="660" y="300" width="100" height="40" as="geometry" />
        </mxCell>
        <mxCell id="13" value="Notifications" style="rounded=1;whiteSpace=wrap;html=1;fillColor=#e1f5fe;strokeColor=#0288d1;" vertex="1" parent="1">
          <mxGeometry x="780" y="300" width="120" height="40" as="geometry" />
        </mxCell>
        <mxCell id="14" value="Documents" style="rounded=1;whiteSpace=wrap;html=1;fillColor=#fbe9e7;strokeColor=#d84315;" vertex="1" parent="1">
          <mxGeometry x="240" y="380" width="120" height="40" as="geometry" />
        </mxCell>
        <mxCell id="15" value="Support" style="rounded=1;whiteSpace=wrap;html=1;fillColor=#e0f7fa;strokeColor=#00acc1;" vertex="1" parent="1">
          <mxGeometry x="380" y="380" width="100" height="40" as="geometry" />
        </mxCell>
        <mxCell id="16" value="Préférences" style="rounded=1;whiteSpace=wrap;html=1;fillColor=#f9fbe7;strokeColor=#afb42b;" vertex="1" parent="1">
          <mxGeometry x="500" y="380" width="120" height="40" as="geometry" />
        </mxCell>
        <mxCell id="17" value="Profil Utilisateur" style="rounded=1;whiteSpace=wrap;html=1;fillColor=#e3f2fd;strokeColor=#1976d2;" vertex="1" parent="1">
          <mxGeometry x="640" y="380" width="140" height="40" as="geometry" />
        </mxCell>
        <!-- Transitions principales (flèches) -->
        <mxCell id="20" style="edgeStyle=orthogonalEdgeStyle;endArrow=block;html=1;strokeColor=#1976d2;" edge="1" parent="1" source="2" target="3">
          <mxGeometry relative="1" as="geometry" />
        </mxCell>
        <mxCell id="21" style="edgeStyle=orthogonalEdgeStyle;endArrow=block;html=1;strokeColor=#388e3c;" edge="1" parent="1" source="2" target="6">
          <mxGeometry relative="1" as="geometry" />
        </mxCell>
        <mxCell id="22" style="edgeStyle=orthogonalEdgeStyle;endArrow=block;html=1;strokeColor=#fbc02d;" edge="1" parent="1" source="3" target="6">
          <mxGeometry relative="1" as="geometry" />
        </mxCell>
        <mxCell id="23" style="edgeStyle=orthogonalEdgeStyle;endArrow=block;html=1;strokeColor=#fbc02d;" edge="1" parent="1" source="3" target="4">
          <mxGeometry relative="1" as="geometry" />
        </mxCell>
        <mxCell id="24" style="edgeStyle=orthogonalEdgeStyle;endArrow=block;html=1;strokeColor=#fbc02d;" edge="1" parent="1" source="3" target="5">
          <mxGeometry relative="1" as="geometry" />
        </mxCell>
        <mxCell id="25" style="edgeStyle=orthogonalEdgeStyle;endArrow=block;html=1;strokeColor=#0288d1;" edge="1" parent="1" source="6" target="7">
          <mxGeometry relative="1" as="geometry" />
        </mxCell>
        <mxCell id="26" style="edgeStyle=orthogonalEdgeStyle;endArrow=block;html=1;strokeColor=#0288d1;" edge="1" parent="1" source="7" target="8">
          <mxGeometry relative="1" as="geometry" />
        </mxCell>
        <!-- Menu latéral (Landing vers tous les écrans) -->
        <mxCell id="27" style="edgeStyle=orthogonalEdgeStyle;endArrow=block;dashed=1;html=1;strokeColor=#888;" edge="1" parent="1" source="6" target="9">
          <mxGeometry relative="1" as="geometry" />
        </mxCell>
        <mxCell id="28" style="edgeStyle=orthogonalEdgeStyle;endArrow=block;dashed=1;html=1;strokeColor=#888;" edge="1" parent="1" source="6" target="10">
          <mxGeometry relative="1" as="geometry" />
        </mxCell>
        <mxCell id="29" style="edgeStyle=orthogonalEdgeStyle;endArrow=block;dashed=1;html=1;strokeColor=#888;" edge="1" parent="1" source="6" target="11">
          <mxGeometry relative="1" as="geometry" />
        </mxCell>
        <mxCell id="30" style="edgeStyle=orthogonalEdgeStyle;endArrow=block;dashed=1;html=1;strokeColor=#888;" edge="1" parent="1" source="6" target="12">
          <mxGeometry relative="1" as="geometry" />
        </mxCell>
        <mxCell id="31" style="edgeStyle=orthogonalEdgeStyle;endArrow=block;dashed=1;html=1;strokeColor=#888;" edge="1" parent="1" source="6" target="13">
          <mxGeometry relative="1" as="geometry" />
        </mxCell>
        <mxCell id="32" style="edgeStyle=orthogonalEdgeStyle;endArrow=block;dashed=1;html=1;strokeColor=#888;" edge="1" parent="1" source="6" target="14">
          <mxGeometry relative="1" as="geometry" />
        </mxCell>
        <mxCell id="33" style="edgeStyle=orthogonalEdgeStyle;endArrow=block;dashed=1;html=1;strokeColor=#888;" edge="1" parent="1" source="6" target="15">
          <mxGeometry relative="1" as="geometry" />
        </mxCell>
        <mxCell id="34" style="edgeStyle=orthogonalEdgeStyle;endArrow=block;dashed=1;html=1;strokeColor=#888;" edge="1" parent="1" source="6" target="16">
          <mxGeometry relative="1" as="geometry" />
        </mxCell>
        <mxCell id="35" style="edgeStyle=orthogonalEdgeStyle;endArrow=block;dashed=1;html=1;strokeColor=#888;" edge="1" parent="1" source="6" target="17">
          <mxGeometry relative="1" as="geometry" />
        </mxCell>
        <!-- Processus associés (notes) -->
        <mxCell id="40" value="Processus :\n- Authentification\n- Parsing email\n- Sync Firestore\n- Notifications\n- Changement de langue\n- Gestion erreurs" style="shape=note;whiteSpace=wrap;html=1;fillColor=#fffde7;strokeColor=#fbc02d;" vertex="1" parent="1">
          <mxGeometry x="800" y="60" width="220" height="120" as="geometry" />
        </mxCell>
      </root>
    </mxGraphModel>
  </diagram>
</mxfile> 